<svg width="416" height="91" viewBox="0 0 416 91" fill="none" xmlns="http://www.w3.org/2000/svg">
  <defs>
    <linearGradient id="gradient" x1="0%" y1="0%" x2="100%" y2="100%" gradientTransform="rotate(45)">
      <stop offset="-10%" stop-color="#1e90ff" />
      <stop offset="100%" stop-color="#ff1493" />
    </linearGradient>
  </defs>
<path d="M33.9262 0.83341C28.5991 0.83341 22.8821 5.08412 21.4529 10.2365L17.2951 24.9208C15.9958 29.4291 18.7243 33.0358 23.5318 33.0358H66.7987L60.8219 54.1605C60.0423 56.7367 57.1838 58.7976 54.4553 58.7976H46.3996L51.9866 39.4762H13.0074L7.94005 57.1231C6.64075 61.6315 9.49922 65.2381 14.1767 65.2381H86.6782C92.1353 65.2381 97.7223 61.1162 99.2814 55.9638L105.258 34.8391C106.558 30.3308 103.829 26.5953 99.0216 26.5953H55.7546L59.9124 12.0398C60.692 9.46364 63.4205 7.27388 66.1491 7.27388H74.2048L70.5667 20.1548H109.546L112.794 9.07721C114.094 4.56888 111.235 0.83341 106.428 0.83341H33.9262Z" fill="#011829"/>
<path d="M206.169 0.83341H133.668C128.34 0.83341 122.623 5.08412 121.194 10.2365L107.681 57.1231C106.382 61.6315 109.24 65.2381 113.918 65.2381H186.42C191.877 65.2381 197.464 61.1162 199.023 55.9638L203.7 39.4762H164.721L160.563 54.1605C159.784 56.7367 156.925 58.7976 154.197 58.7976H146.141L152.248 37.8017C153.027 35.2255 155.756 33.0358 158.484 33.0358H205.519L212.536 9.07721C213.835 4.56888 210.977 0.83341 206.169 0.83341ZM169.788 21.9582C169.009 24.5343 166.28 26.5953 163.552 26.5953H155.496L159.654 12.0398C160.433 9.46364 163.162 7.27388 165.891 7.27388H173.946L169.788 21.9582Z" fill="#011829"/>
<path d="M306.544 0.83341H233.913C228.586 0.83341 222.999 5.08412 221.44 10.2365L207.927 57.1231C206.628 61.6315 209.486 65.2381 214.164 65.2381H257.561L253.403 79.9224C252.623 82.4986 249.765 84.5595 247.036 84.5595H38.7736L42.5416 71.6786H3.56236L0.314093 82.885C-0.985215 87.3933 1.87326 91 6.55077 91H279.259C284.716 91 290.303 86.8781 291.862 81.7257L312.781 9.07721C314.08 4.56888 311.222 0.962218 306.544 0.962218V0.83341ZM260.809 54.1605C260.029 56.7367 257.171 58.7976 254.572 58.7976H246.387L259.9 12.0398C260.679 9.46364 263.537 7.27388 266.136 7.27388H274.322L260.809 54.1605Z" fill="#011829"/>
<path d="M333.884 0.83341C328.557 0.83341 322.84 5.08412 321.41 10.2365L317.253 24.9208C315.953 29.4291 318.682 33.0358 323.489 33.0358H366.756L360.779 54.1605C360 56.7367 357.141 58.7976 354.413 58.7976H346.357L351.944 39.4762H312.965L307.897 57.1231C306.598 61.6315 309.457 65.2381 314.134 65.2381H386.636C392.093 65.2381 397.68 61.1162 399.239 55.9638L405.216 34.8391C406.515 30.3308 403.786 26.5953 398.979 26.5953H355.712L359.87 12.0398C360.649 9.46364 363.378 7.27388 366.107 7.27388H374.162L370.524 20.1548H409.503L412.752 9.07721C414.051 4.56888 411.193 0.83341 406.385 0.83341H333.884Z" fill="#011829"/>
<path d="M14.1767 65.2381C9.49922 65.2381 6.64075 61.6315 7.94005 57.1231L5.58786 65.2381H14.1767Z" fill="#011829"/>
<path d="M406.385 0.83341C411.193 0.83341 414.051 4.56888 412.752 9.07721L415.169 0.83341H406.385Z" fill="#011829"/>
<path fill="url(#gradient)" d="..."/>
</svg>
